<svg width="28" height="26" viewBox="0 0 28 26" fill="none" xmlns="http://www.w3.org/2000/svg">
<path d="M25.5671 0.829102L15.3975 8.37386L17.2862 3.92263L25.5671 0.829102Z" fill="#E17726" stroke="#E17726" stroke-width="0.712817" stroke-linecap="round" stroke-linejoin="round"/>
<path d="M2.11377 0.829102L12.1909 8.44526L10.3947 3.92263L2.11377 0.829102Z" fill="#E27625" stroke="#E27625" stroke-width="0.712817" stroke-linecap="round" stroke-linejoin="round"/>
<path d="M21.911 18.3198L19.2057 22.4653L24.9945 24.0573L26.6489 18.4113L21.911 18.3198Z" fill="#E27625" stroke="#E27625" stroke-width="0.712817" stroke-linecap="round" stroke-linejoin="round"/>
<path d="M1.04169 18.4113L2.686 24.0573L8.47481 22.4653L5.77954 18.3198L1.04169 18.4113Z" fill="#E27625" stroke="#E27625" stroke-width="0.712817" stroke-linecap="round" stroke-linejoin="round"/>
<path d="M8.15751 11.3142L6.54437 13.7551L12.2829 14.0105L12.0888 7.83252L8.15751 11.3142Z" fill="#E27625" stroke="#E27625" stroke-width="0.712817" stroke-linecap="round" stroke-linejoin="round"/>
<path d="M19.5228 11.3144L15.5302 7.76123L15.3975 14.0106L21.136 13.7552L19.5228 11.3144Z" fill="#E27625" stroke="#E27625" stroke-width="0.712817" stroke-linecap="round" stroke-linejoin="round"/>
<path d="M8.47424 22.4644L11.9359 20.7788L8.95396 18.4517L8.47424 22.4644Z" fill="#E27625" stroke="#E27625" stroke-width="0.712817" stroke-linecap="round" stroke-linejoin="round"/>
<path d="M15.7432 20.7788L19.2048 22.4644L18.7251 18.4517L15.7432 20.7788Z" fill="#E27625" stroke="#E27625" stroke-width="0.712817" stroke-linecap="round" stroke-linejoin="round"/>
<path d="M19.2048 22.4648L15.7432 20.7793L16.0187 23.0361L15.9886 23.9855L19.2048 22.4648Z" fill="#D5BFB2" stroke="#D5BFB2" stroke-width="0.712817" stroke-linecap="round" stroke-linejoin="round"/>
<path d="M8.47424 22.4648L11.6905 23.9855L11.6704 23.0361L11.9359 20.7793L8.47424 22.4648Z" fill="#D5BFB2" stroke="#D5BFB2" stroke-width="0.712817" stroke-linecap="round" stroke-linejoin="round"/>
<path d="M11.7518 16.9601L8.87244 16.1133L10.9039 15.1841L11.7518 16.9601Z" fill="#233447" stroke="#233447" stroke-width="0.712817" stroke-linecap="round" stroke-linejoin="round"/>
<path d="M15.9276 16.9601L16.7754 15.1841L18.8169 16.1133L15.9276 16.9601Z" fill="#233447" stroke="#233447" stroke-width="0.712817" stroke-linecap="round" stroke-linejoin="round"/>
<path d="M8.475 22.4653L8.97483 18.3198L5.77972 18.4113L8.475 22.4653Z" fill="#CC6228" stroke="#CC6228" stroke-width="0.712817" stroke-linecap="round" stroke-linejoin="round"/>
<path d="M18.7051 18.3198L19.205 22.4653L21.9103 18.4113L18.7051 18.3198Z" fill="#CC6228" stroke="#CC6228" stroke-width="0.712817" stroke-linecap="round" stroke-linejoin="round"/>
<path d="M21.136 13.7554L15.3975 14.0108L15.9285 16.9605L16.7763 15.1845L18.8178 16.1137L21.136 13.7554Z" fill="#CC6228" stroke="#CC6228" stroke-width="0.712817" stroke-linecap="round" stroke-linejoin="round"/>
<path d="M8.87257 16.1137L10.9041 15.1845L11.7519 16.9605L12.2829 14.0108L6.54437 13.7554L8.87257 16.1137Z" fill="#CC6228" stroke="#CC6228" stroke-width="0.712817" stroke-linecap="round" stroke-linejoin="round"/>
<path d="M6.54437 13.7554L8.95403 18.452L8.87257 16.1137L6.54437 13.7554Z" fill="#E27525" stroke="#E27525" stroke-width="0.712817" stroke-linecap="round" stroke-linejoin="round"/>
<path d="M18.8175 16.1137L18.726 18.452L21.1357 13.7554L18.8175 16.1137Z" fill="#E27525" stroke="#E27525" stroke-width="0.712817" stroke-linecap="round" stroke-linejoin="round"/>
<path d="M12.2839 14.0107L11.7529 16.9605L12.4267 20.4422L12.5695 15.8582L12.2839 14.0107Z" fill="#E27525" stroke="#E27525" stroke-width="0.712817" stroke-linecap="round" stroke-linejoin="round"/>
<path d="M15.3979 14.0107L15.1224 15.8482L15.2551 20.4422L15.9289 16.9605L15.3979 14.0107Z" fill="#E27525" stroke="#E27525" stroke-width="0.712817" stroke-linecap="round" stroke-linejoin="round"/>
<path d="M15.9274 16.9611L15.2536 20.4428L15.7434 20.7797L18.7253 18.4525L18.8168 16.1143L15.9274 16.9611Z" fill="#F5841F" stroke="#F5841F" stroke-width="0.712817" stroke-linecap="round" stroke-linejoin="round"/>
<path d="M8.87244 16.1143L8.9539 18.4525L11.9358 20.7797L12.4256 20.4428L11.7518 16.9611L8.87244 16.1143Z" fill="#F5841F" stroke="#F5841F" stroke-width="0.712817" stroke-linecap="round" stroke-linejoin="round"/>
<path d="M15.9888 23.9855L16.019 23.0361L15.7646 22.8118H11.9147L11.6704 23.0361L11.6905 23.9855L8.47424 22.4648L9.59761 23.383L11.8846 24.966H15.7947L18.0817 23.383L19.2051 22.4648L15.9888 23.9855Z" fill="#C0AC9D" stroke="#C0AC9D" stroke-width="0.712817" stroke-linecap="round" stroke-linejoin="round"/>
<path d="M15.7439 20.7788L15.2541 20.4419H12.4261L11.9363 20.7788L11.6708 23.0356L11.9152 22.8113H15.765L16.0195 23.0356L15.7439 20.7788Z" fill="#161616" stroke="#161616" stroke-width="0.712817" stroke-linecap="round" stroke-linejoin="round"/>
<path d="M25.9943 8.86464L26.8521 4.69903L25.5658 0.829102L15.7432 8.11941L19.5216 11.3145L24.8608 12.8774L26.0355 11.4986L25.5246 11.1315L26.3412 10.3853L25.7187 9.89548L26.5353 9.27295L25.9943 8.86464Z" fill="#763E1A" stroke="#763E1A" stroke-width="0.712817" stroke-linecap="round" stroke-linejoin="round"/>
<path d="M0.827209 4.69903L1.69513 8.86464L1.14401 9.27295L1.96063 9.89548L1.3381 10.3853L2.15473 11.1315L1.64384 11.4986L2.81849 12.8774L8.15775 11.3145L11.9362 8.11941L2.1135 0.829102L0.827209 4.69903Z" fill="#763E1A" stroke="#763E1A" stroke-width="0.712817" stroke-linecap="round" stroke-linejoin="round"/>
<path d="M24.8618 12.8773L19.5225 11.3145L21.1357 13.7553L18.726 18.4519L21.9111 18.4107H26.6489L24.8618 12.8773Z" fill="#F5841F" stroke="#F5841F" stroke-width="0.712817" stroke-linecap="round" stroke-linejoin="round"/>
<path d="M8.15801 11.3145L2.81876 12.8773L1.04169 18.4107H5.77953L8.95453 18.4519L6.54487 13.7553L8.15801 11.3145Z" fill="#F5841F" stroke="#F5841F" stroke-width="0.712817" stroke-linecap="round" stroke-linejoin="round"/>
<path d="M15.3964 14.0105L15.7434 8.11914L17.2852 3.92236H10.3941L11.9358 8.11914L12.2828 14.0105L12.4156 15.8681L12.4256 20.442H15.2536L15.2637 15.8681L15.3964 14.0105Z" fill="#F5841F" stroke="#F5841F" stroke-width="0.712817" stroke-linecap="round" stroke-linejoin="round"/>
</svg>
